<?xml version="1.0" encoding="UTF-8"?>
<!-- Generated by Pixelmator Pro 3.0 -->
<svg width="125" height="40" viewBox="0 0 125 40" xmlns="http://www.w3.org/2000/svg" xmlns:xlink="http://www.w3.org/1999/xlink">
    <linearGradient id="linearGradient1" x1="0" y1="16" x2="119" y2="16" gradientUnits="userSpaceOnUse">
        <stop offset="1e-05" stop-color="#64c2db" stop-opacity="1"/>
        <stop offset="0.307" stop-color="#7476ed" stop-opacity="1"/>
        <stop offset="0.604" stop-color="#c994df" stop-opacity="1"/>
        <stop offset="1" stop-color="#e56f8c" stop-opacity="1"/>
    </linearGradient>
    <path id="Path" fill="url(#linearGradient1)" stroke="none" d="M 118.481003 2.148998 C 118.481003 0.966 119.440002 0.006001 120.623001 0.006001 L 122.052002 0.006001 C 123.23555 0.006001 124.195 0.965454 124.195 2.148998 C 124.195 3.332546 123.23555 4.292 122.052002 4.292 L 120.623001 4.292 C 120.054733 4.292 119.509758 4.066189 119.108025 3.664268 C 118.706291 3.262352 118.480736 2.717266 118.481003 2.148998 Z M 58.490002 14.290001 C 58.490002 22.177999 52.096001 28.573 44.207001 28.573 C 36.319 28.573 29.924 22.177999 29.924 14.290001 C 29.924 6.400002 36.319 0.007 44.207001 0.007 C 52.096001 0.007 58.490002 6.400002 58.490002 14.290001 Z M 27.138 14.219 C 27.927999 14.219 28.573999 14.859001 28.495001 15.645 C 27.744116 23.126228 21.321867 28.744322 13.80723 28.493656 C 6.292593 28.24299 0.25901 22.209406 0.008344 14.694771 C -0.242322 7.180134 5.375772 0.757885 12.857 0.007 C 13.642 -0.073002 14.283 0.575001 14.283 1.362999 L 14.283 12.790001 C 14.283 13.58 14.923 14.219 15.712 14.219 L 27.138 14.219 Z M 78.487 31.43 C 80.853539 31.43 82.772003 33.348461 82.772003 35.715 C 82.772003 38.081539 80.853539 40 78.487 40 L 71.346001 40 C 68.979462 40 67.060997 38.081539 67.060997 35.715 C 67.060997 33.348461 68.979462 31.43 71.346001 31.43 L 78.487 31.43 Z M 74.202003 28.573 C 82.091003 28.573 88.486 22.177999 88.486 14.290001 C 88.48941 11.866947 87.873596 9.483212 86.696999 7.364998 L 89.056999 5.005001 C 90.200226 3.861217 90.199783 2.007229 89.056 0.863998 C 87.912216 -0.279228 86.058228 -0.278782 84.915001 0.865002 L 82.855003 2.924999 C 80.369766 1.026905 77.328156 0.000969 74.200996 0.006001 C 66.314003 0.007 59.919998 6.400002 59.919998 14.290001 C 59.919998 22.177999 66.315002 28.573 74.203003 28.573 Z M 118.481003 14.290001 C 118.481003 22.177999 112.085999 28.573 104.196999 28.573 C 96.308998 28.573 89.914001 22.177999 89.914001 14.290001 C 89.914001 6.400002 96.308998 0.007 104.196999 0.007 C 112.085999 0.007 118.481003 6.401001 118.481003 14.290001 Z"/>
</svg>
